<svg xmlns="http://www.w3.org/2000/svg" width="78" height="28" viewBox="0 0 78 28">
    <g fill="#77898A" fill-rule="evenodd">
        <path d="M44.012 10.185h2.392V12.043c1.225-2.469 5.27-3.022 6.177-.02h.04c.834-1.652 2.876-2.448 4.615-1.911 1.6.493 2.07 2.142 2.07 3.67v6.484h-2.49v-6.009c0-1.05-.271-2.094-1.523-2.011-1.225.081-2 1.167-2.261 2.288-.098.395-.118.83-.118 1.305v4.427h-2.49v-6.009c0-1.114-.32-2.166-1.643-1.998-1.176.149-1.897 1.212-2.16 2.295-.1.375-.119.83-.119 1.285v4.427h-2.49v-10.08M77.218 18.131c-.647 0-1.02-.276-1.02-1.383V6.232l-2.471 2.494v8.397c0 2.886 1.706 3.242 3.079 3.242.412 0 .784-.06.784-.06v-2.193s-.176.02-.372.02M70.806 11.94c-.873-1.43-2.464-2.144-4.108-1.965-1.06.115-2.169.67-2.712 1.634v-1.424h-2.274v14.848l2.49-2.516v-3.398c.836 1.227 2.492 1.578 3.862 1.278 3.58-.783 4.468-5.628 2.742-8.457zm-4.192 6.448c-1.528 0-2.385-1.413-2.48-2.811-.08-1.17.234-2.555 1.32-3.172.898-.51 2.088-.368 2.814.376 1.588 1.624 1.014 5.607-1.654 5.607zM39.12 10.277h2.49v9.99h-2.49zM36.895 15.543c-.385-1.758-2.037-2.597-3.544-3.235-.994-.422-2.972-.947-2.915-2.347.056-1.387 1.67-1.746 2.769-1.554.62.108 1.235.36 1.78.705l1.656-1.67c-1.49-1.443-4.095-1.81-5.979-1.126-2.033.739-3.436 3.037-2.496 5.16.692 1.561 2.456 2.219 3.904 2.854 1.112.487 3.067 1.346 2.186 2.928-.629 1.127-2.24.995-3.266.636a5.807 5.807 0 0 1-1.639-.896l-1.664 1.678c1.452 1.479 3.846 2.104 5.832 1.725 2.258-.43 3.889-2.513 3.376-4.858M18.729 6.917l2.717-2.731-.59-.594c-4.765-4.79-12.519-4.79-17.284 0-4.566 4.59-4.753 11.937-.568 16.756L.287 23.08l.59.593c4.766 4.79 12.519 4.79 17.284 0 4.566-4.59 4.754-11.936.568-16.756zM4.753 4.78C8.668.844 14.92.654 19.06 4.21l-1.55 1.557a8.359 8.359 0 0 0-11.243.565c-3.077 3.092-3.264 7.99-.562 11.302l-1.52 1.527C.65 14.998.84 8.714 4.754 4.78zM16.98 22.486c-3.915 3.935-10.167 4.125-14.307.57l1.55-1.557a8.359 8.359 0 0 0 11.243-.564c3.077-3.093 3.264-7.99.562-11.302l1.519-1.527c3.536 4.161 3.348 10.445-.567 14.38z"/>
    </g>
</svg>
