<svg xmlns="http://www.w3.org/2000/svg" width="86" height="31" viewBox="0 0 86 31">
    <g fill="#00D1C1" fill-rule="evenodd">
        <path d="M48.526 11.277h2.638v2.056c1.35-2.733 5.81-3.345 6.81-.021h.043c.92-1.83 3.172-2.71 5.09-2.117 1.764.547 2.282 2.372 2.282 4.064v7.179h-2.746v-6.653c0-1.163-.299-2.32-1.679-2.227-1.351.09-2.206 1.292-2.493 2.533-.108.438-.13.92-.13 1.445v4.902h-2.745v-6.653c0-1.233-.352-2.399-1.812-2.213-1.296.165-2.091 1.342-2.382 2.541-.109.416-.13.92-.13 1.423v4.902h-2.746V11.277M85.137 20.074c-.713 0-1.124-.306-1.124-1.532V6.9L81.29 9.66v9.298c0 3.195 1.881 3.589 3.394 3.589.454 0 .865-.066.865-.066v-2.429s-.194.022-.41.022M78.068 13.22c-.963-1.585-2.716-2.375-4.53-2.177-1.167.128-2.39.743-2.989 1.81v-1.576h-2.508v16.438l2.746-2.786v-3.761c.922 1.358 2.747 1.746 4.258 1.414 3.948-.867 4.926-6.23 3.023-9.362zm-4.622 7.138c-1.684 0-2.63-1.564-2.734-3.112-.088-1.294.257-2.829 1.456-3.512.99-.565 2.301-.407 3.102.416 1.751 1.799 1.118 6.208-1.824 6.208zM43.132 11.379h2.746v11.059h-2.746zM40.679 17.208c-.425-1.946-2.245-2.875-3.907-3.582-1.097-.466-3.277-1.048-3.215-2.598.062-1.535 1.842-1.932 3.053-1.72.684.119 1.362.398 1.963.78l1.826-1.849c-1.643-1.597-4.515-2.004-6.592-1.246-2.241.817-3.788 3.362-2.752 5.712.763 1.729 2.708 2.457 4.305 3.16 1.226.54 3.381 1.49 2.41 3.242-.694 1.248-2.47 1.102-3.602.705a6.394 6.394 0 0 1-1.806-.993l-1.835 1.857c1.6 1.638 4.24 2.33 6.43 1.91 2.49-.476 4.288-2.781 3.722-5.378M20.65 7.658l2.996-3.024-.651-.657c-5.254-5.303-13.803-5.303-19.056 0-5.035 5.082-5.242 13.215-.627 18.551L.316 25.552l.652.657c5.253 5.303 13.802 5.303 19.056 0 5.034-5.081 5.24-13.215.626-18.55zM5.24 5.291a11.57 11.57 0 0 1 15.775-.631l-1.708 1.724a9.188 9.188 0 0 0-12.398.625c-3.392 3.424-3.598 8.846-.618 12.513l-1.676 1.69C.716 16.606.925 9.649 5.241 5.293zm13.481 19.604a11.57 11.57 0 0 1-15.774.631l1.708-1.724a9.188 9.188 0 0 0 12.398-.624c3.392-3.424 3.598-8.846.618-12.513l1.676-1.691c3.899 4.608 3.69 11.565-.626 15.921z"/>
    </g>
</svg>
